<svg id="Áreas_ícones" data-name="Áreas ícones" xmlns="http://www.w3.org/2000/svg" viewBox="0 0 317.04 317.04"><defs><style>.cls-1{fill:#b4b4b4;}</style></defs><g id="Animais"><path class="cls-1" d="M209.61,148.91c-17-16.53-36.16-26.73-52.34-27.55v-.07h-.12v.07c-16.18.82-34.49,11.92-52.33,27.55C77.32,173,56,197.78,57.14,236c0,.61,0,1.22,0,1.83.26,26.21,22,48.78,48.37,48.78h2.25c21.59,0,40.06-12.45,49.46-31.35,9.41,18.9,27.87,31.35,49.47,31.35h2.24c26.38,0,48.11-22.57,48.38-48.78,0-.61,0,.61,0,0C258.47,199.61,241.14,179.55,209.61,148.91Z"/><ellipse class="cls-1" cx="208.49" cy="70.35" rx="41.96" ry="29.44" transform="translate(55.2 228.2) rotate(-64.48)"/><path class="cls-1" d="M288,150.39c-13.77,15.08-36.59,17.51-44.08,9.81-7.26-7.46-8-29.71,5.78-44.78s33.5-19.47,44.08-9.81S301.73,135.32,288,150.39Z"/><ellipse class="cls-1" cx="108.55" cy="70.35" rx="29.44" ry="41.96" transform="translate(-19.72 53.62) rotate(-25.52)"/><path class="cls-1" d="M29.08,150.39c13.77,15.08,36.59,17.51,44.08,9.81,7.26-7.46,8-29.71-5.78-44.78S33.87,96,23.3,105.61,15.31,135.32,29.08,150.39Z"/></g></svg>