<svg id="Áreas_ícones" data-name="Áreas ícones" xmlns="http://www.w3.org/2000/svg" viewBox="0 0 317.04 317.04"><defs><style>.cls-1{fill:#b4b4b4;fill-rule:evenodd;}</style></defs><path id="Esportes" class="cls-1" d="M74.08,143,36.51,166.73a113.34,113.34,0,0,0,20.76,60.32l39.56-2h0l24.72-25.71-12.86-42.52L74.08,143Zm3.47-20.13L62.72,83.31h0C75.57,66.5,93.37,53.65,113.15,45.74l34.61,28.68h0V112l-32.63,26.7L77.55,122.87Zm36.18,113.24,11,41.94h0a114.24,114.24,0,0,0,33,5c12,0,22-2,33-5l11-41h0l-24-24H136.69l-23,23ZM217.53,225l41.53,2a113.34,113.34,0,0,0,20.76-60.32l-37.57-24.72h0l-34.61,14.83-12.86,43.51L217.53,225Zm20.25-102.06,14.83-38.56h0C239.75,67.57,222,54.71,202.18,46.8h0L167.57,74.49v37.57l32.63,26.7,37.58-15.82ZM157.66,301.11A141.73,141.73,0,1,0,15.93,159.38,141.78,141.78,0,0,0,157.66,301.11Z"/></svg>