<svg id="Áreas_ícones" data-name="Áreas ícones" xmlns="http://www.w3.org/2000/svg" viewBox="0 0 317.04 317.04"><defs><style>.cls-1{fill:#b4b4b4;}</style></defs><g id="Educação"><path class="cls-1" d="M260,241v.51c.06,9.83-10.62,21.65-27.85,30.82-14,7.41-38.13,16.28-73.65,16.28s-59.63-8.87-73.65-16.28C67.65,263.18,57,251.36,57,241.53V241l7.41-73a4.83,4.83,0,0,1,5.14-4.55,5.28,5.28,0,0,1,1.4.44l78.79,39a19.79,19.79,0,0,0,17.5,0l78.79-39a4.56,4.56,0,0,1,6.21,2.57,6.73,6.73,0,0,1,.4,1.54Z"/><path class="cls-1" d="M294.25,173.78a10.85,10.85,0,0,0-5.06-9.26v-45l-10.12,4.78v40.19a10.94,10.94,0,0,0-5.06,9.26v69.81h20.24Z"/><polygon class="cls-1" points="271.7 127.82 271.7 127.82 271.7 127.82 271.7 127.82"/><path class="cls-1" d="M267.57,132.8h0l7.37-3.5v0l15.92-7.53h0l6.22-3a11,11,0,0,0,5.13-14.16,10.61,10.61,0,0,0-5.13-5.51L166.81,30.27a19.4,19.4,0,0,0-16.58,0L20,99.15a11,11,0,0,0-5.12,14.17A10.68,10.68,0,0,0,20,118.75l130.27,62a19.4,19.4,0,0,0,16.58,0L267.57,132.8Z"/></g></svg>