<svg id="Áreas_ícones" data-name="Áreas ícones" xmlns="http://www.w3.org/2000/svg" viewBox="0 0 317.04 317.04"><defs><style>.cls-1,.cls-2{fill:#b4b4b4;}.cls-2{fill-rule:evenodd;}</style></defs><g id="Direitos_Humanos" data-name="Direitos Humanos"><path class="cls-1" d="M295.52,139.38c0-.49-.45-.49-.45-1v-.5a15.93,15.93,0,0,0-14.44-9.95H186.31c-14.89,0-22.57,5.47-22.57,5.47L83.86,199.59c-2.25,1.5-7.67,11.94-2.7,21.9,5,9.45,21.66,2.48,21.66,2.48s55.51-39.8,60-42.29c4.06-2.49,10.38-2.49,14.89,4.48,5.42,11.44-8.12,19.9-8.12,19.9L122.68,239.4c-9,6.47-17.15,8-21.22,8l-65,.5c-12.19,0-22.12,3-22.12,14.93,0,14.92,15.35,16.42,15.35,16.42H134.86a53.07,53.07,0,0,0,28.88-9.95L234.15,218a35,35,0,0,1,18.5-5h27.08a17.24,17.24,0,0,0,15.79-9.95C308.16,176.21,301.39,152.82,295.52,139.38Z"/><path id="path" class="cls-2" d="M90.26,59.43c-5.76-13-18-21.59-32.39-21.59-17.27,0-32.39,13.67-32.39,31v1.44c0,25.19,27.35,45.34,64.78,82.77C127.69,115.57,155,95.42,155,70.23c0-17.28-13.68-32.39-30.95-32.39h-1.44C108.25,37.84,96,46.47,90.26,59.43Z"/></g></svg>