<svg id="Áreas_ícones" data-name="Áreas ícones" xmlns="http://www.w3.org/2000/svg" viewBox="0 0 317.04 317.04"><defs><style>.cls-1{fill:#b4b4b4;}</style></defs><path id="Meio_Ambiente" data-name="Meio Ambiente" class="cls-1" d="M268.7,24.05c-1.16-3.69-.24-9.47-6.94-10.1,0,23.3-16.63,35.16-35.42,45.09-27,14.26-62.52,15.51-91.35,25.58-54.74,19.13-84.4,55.29-91.27,110.66-4.44,35.77-5.66,67.7,16.61,107.81H80.49a2.94,2.94,0,0,0,1.14-2.26c-.18-1.82-2.23-3.07-2.63-3.27-3.61-1.89-15.13-19.41-19-43.46-.08-.49-.19-1.2-.33-2.12-1-6.53-7.14-49.14,19.21-76.89,7.87-8.29,15.93-12.4,23.67-16.35A112.47,112.47,0,0,1,144.13,147l8.68.94c-12.92,3.21-50,20.79-63.57,36.59-11,12.77-22.67,35.21-15.78,43.08,2.79,3.2,7.82,2.68,10.31,2.93,86.22,8.91,152.66-22.34,180.39-97.68C275.43,102.25,281.64,65.21,268.7,24.05Z"/></svg>