<svg id="Áreas_ícones" data-name="Áreas ícones" xmlns="http://www.w3.org/2000/svg" viewBox="0 0 317.04 317.04"><defs><style>.cls-1{fill:#b4b4b4;}</style></defs><path id="Artes" class="cls-1" d="M309.43,135.4l-19.64,79.67c-5.46,25.11-24,44.75-48,53.48L194.83,286a12.3,12.3,0,0,1-12-3.28L149,245.63c-17.46-18.55-24-44.75-18.55-69.85L149,96.1c1.09-4.36,5.46-8.73,10.91-8.73,50.21,0,98.23,12,143,33.84C308.34,125.57,310.52,131,309.43,135.4ZM173,188.88a38.12,38.12,0,0,0,74.22,17.46M260.32,154a16.28,16.28,0,1,0,12,19.65A16.28,16.28,0,0,0,260.32,154ZM186.1,136.49a16.28,16.28,0,1,0,12,19.64A16.28,16.28,0,0,0,186.1,136.49Zm-70.94,97.14-22.92-5.46a77.92,77.92,0,0,1-53.49-49.12L8.19,91.74c-2.18-4.37,0-9.82,4.37-13.1C55.13,51.36,101,35,151.17,30.62c5.46,0,9.83,2.18,10.92,7.64L173,68.82H159.9c-15.28,0-28.37,9.82-31.65,25.1l-12,51.3a4,4,0,0,0-3.28,1.09c-19.64,6.55-30.56,28.38-22.92,49.12l17.47-6.55A94.61,94.61,0,0,0,115.16,233.63ZM84.6,125.57c-3.28-8.73-12-13.09-20.74-9.82a16,16,0,0,0-10.92,20.74c3.28,8.73,12,13.1,20.74,9.82A17.3,17.3,0,0,0,84.6,125.57Z"/></svg>