<svg id="Áreas_ícones" data-name="Áreas ícones" xmlns="http://www.w3.org/2000/svg" viewBox="0 0 317.04 317.04"><defs><style>.cls-1{fill:#b4b4b4;fill-rule:evenodd;}.cls-2{fill:#fff;}</style></defs><g id="Outros"><g id="icon-6-soccer-ball"><path id="soccer-ball" class="cls-1" d="M158.52,300.25A141.73,141.73,0,1,0,16.79,158.52,141.78,141.78,0,0,0,158.52,300.25Z"/></g><path class="cls-2" d="M95,140.64a18.39,18.39,0,1,0,13.57,22.2A18.37,18.37,0,0,0,95,140.64Z"/><path class="cls-2" d="M163.38,140.64a18.39,18.39,0,1,0,13.56,22.2A18.38,18.38,0,0,0,163.38,140.64Z"/><path class="cls-2" d="M230.65,140.64a18.39,18.39,0,1,0,13.57,22.2A18.39,18.39,0,0,0,230.65,140.64Z"/></g></svg>