<svg xmlns="http://www.w3.org/2000/svg" width="37.411" height="27.475" viewBox="0 0 37.411 27.475">
    <defs>
        <style>.a{fill:#cbcbcb;}</style>
    </defs>
    <path class="a" d="M.364,4.2a2.816,2.816,0,1,1,4.862.083c-.439.9-1.5,2.875-2.4,2.875C1.907,7.157.783,5.053.364,4.2Z" transform="translate(0 12.262) rotate(-45)" />
    <path class="a" d="M.364,4.2a2.816,2.816,0,1,1,4.862.083c-.439.9-1.5,2.875-2.4,2.875C1.907,7.157.783,5.053.364,4.2Z" transform="translate(33.425 8.276) rotate(45)" />
    <path class="a" d="M.413,4.762a3.195,3.195,0,1,1,5.515.095c-.5,1.02-1.7,3.261-2.718,3.261C2.163,8.117.888,5.731.413,4.762Z" transform="translate(7.642 3.197) rotate(-30)" />
    <path class="a" d="M.413,4.762a3.195,3.195,0,1,1,5.515.095c-.5,1.021-1.7,3.261-2.718,3.261C2.163,8.117.888,5.731.413,4.762Z" transform="translate(23.508 0) rotate(30)" />
    <path class="a" d="M11.653,14.47a9.416,9.416,0,0,1-4.043.882c-4.2,0-7.61-2.586-7.61-5.775A4.9,4.9,0,0,1,1.2,6.464,10.673,10.673,0,0,1,4.692,2.608,13.544,13.544,0,0,1,11.771,0h.1a14.184,14.184,0,0,1,7.12,2.617c1.407.974,3.689,2.926,4.054,5.527a4.477,4.477,0,0,1,.236,1.432c0,3.189-3.407,5.775-7.61,5.775A9.531,9.531,0,0,1,11.653,14.47Z" transform="translate(6.881 12.122)" />
</svg>