<svg xmlns="http://www.w3.org/2000/svg" xmlns:xlink="http://www.w3.org/1999/xlink" width="33.013" height="33.013" viewBox="0 0 33.013 33.013"><defs><style>.a{fill:none;}.b{clip-path:url(#a);}.c{fill:#cbcbcb;fill-rule:evenodd;}</style><clipPath id="a"><rect class="a" width="33.013" height="33.013"/></clipPath></defs><g class="b" transform="translate(0 0)"><path class="c" d="M6.339,14,1.321,17.167a15.054,15.054,0,0,0,2.773,8.055l5.282-.264,3.3-3.433-1.585-5.546Zm.132-1.321L4.49,7.395a15.186,15.186,0,0,1,6.735-5.15l4.622,3.83v5.018l-4.358,3.565ZM10.7,25.618l1.453,5.546a15.318,15.318,0,0,0,8.583,0l1.453-5.414-3.037-3.3H13.733Zm12.677-.528,5.546.264a15.054,15.054,0,0,0,2.773-8.187l-5.018-3.3-4.754,1.981L20.2,21.657Zm3.169-12.413,1.981-5.15a15.186,15.186,0,0,0-6.735-5.018L17.167,6.074v5.018l4.358,3.565ZM16.507,33.013A16.507,16.507,0,1,0,0,16.507,16.507,16.507,0,0,0,16.507,33.013"/></g></svg>