<svg xmlns="http://www.w3.org/2000/svg" xmlns:xlink="http://www.w3.org/1999/xlink" width="33.8" height="25.869" viewBox="0 0 33.8 25.869"><defs><style>.a{fill:none;}.b{clip-path:url(#a);}.c{fill:#ccc;}</style><clipPath id="a"><rect class="a" width="33.8" height="25.869"/></clipPath></defs><g class="b"><path class="c" d="M28.182,21.064v.052c.007.991-1.176,2.182-3.085,3.107a18.674,18.674,0,0,1-8.16,1.642,18.7,18.7,0,0,1-8.16-1.642C6.87,23.3,5.686,22.107,5.694,21.116a.51.51,0,0,1,0-.052L6.515,13.7a.518.518,0,0,1,.725-.414L15.969,17.2a2.367,2.367,0,0,0,1.938,0l8.729-3.913a.518.518,0,0,1,.725.414ZM33.139,7.031,17.907.2a2.367,2.367,0,0,0-1.938,0L.745,7.031a1.184,1.184,0,0,0,0,2.16l15.232,6.828a2.367,2.367,0,0,0,1.938,0L30.55,10.353v4.431a1.184,1.184,0,0,0-.592,1.021V23.5h2.367V15.8a1.184,1.184,0,0,0-.592-1.021V9.827L33.139,9.2a1.184,1.184,0,0,0,0-2.16Z" transform="translate(-0.042 0.004)"/></g></svg>