<svg xmlns="http://www.w3.org/2000/svg" width="24.16" height="35.133" viewBox="0 0 24.16 35.133"><defs><style>.a{fill:#cbcbcb;}</style></defs><path class="a" d="M2.364,35.105C-.024,30.967-.3,26.44.226,21.83.92,15.775,4.475,11.8,9.835,9.221,12.807,7.776,16,6.777,18.917,5.138c2.027-1.139,3.8-2.5,3.8-5.138.722.083.611.722.75,1.139,1.416,4.638.5,9.026-1.416,13.331A18.3,18.3,0,0,1,4.225,25.69c-1.75-.083-1.916-.333-1.25-2a9.637,9.637,0,0,1,2.277-3.277c.917-.917,1.916-1.75,2.861-2.611l.306-.361c-.222-.167-.389-.083-.555.111a19.191,19.191,0,0,0-5,3.916C.531,24,1.225,26.884,1.892,29.745a10.5,10.5,0,0,0,2.472,4.749c.139.167.528.306.222.639Z" transform="translate(0)"/></svg>