<svg xmlns="http://www.w3.org/2000/svg" xmlns:xlink="http://www.w3.org/1999/xlink" width="29.742" height="29.742" viewBox="0 0 29.742 29.742"><defs><style>.a{fill:none;}.b{clip-path:url(#a);}.c{fill:#12b2a0;}</style><clipPath id="a"><rect class="a" width="29.742" height="29.742"/></clipPath></defs><g class="b" transform="translate(0 0)"><path class="c" d="M12.959,25.777A8.3,8.3,0,0,1,2.3,13.26L13.083,2.479A8.3,8.3,0,0,1,19.032,0a8.179,8.179,0,0,1,5.824,2.355,8.3,8.3,0,0,1,.867,10.658,10.782,10.782,0,0,0-3.47-.62H21.138l.991-.991a4.461,4.461,0,0,0,0-6.32,4.09,4.09,0,0,0-2.974-1.363,4.461,4.461,0,0,0-3.222,1.363L11.1,9.666,15.933,14.5a10.038,10.038,0,0,0-3.718,7.683,15.367,15.367,0,0,0,.744,3.594m13.632-9.542a7.436,7.436,0,0,0-10.41,10.41Zm1.859,1.735L18.04,28.379a7.436,7.436,0,0,0,10.41-10.41" transform="translate(0.053 0)"/></g></svg>